<?xml version="1.0" encoding="UTF-8"?>
<svg width="34px" height="30px" viewBox="0 0 34 30" version="1.1" xmlns="http://www.w3.org/2000/svg" xmlns:xlink="http://www.w3.org/1999/xlink">
    <title>linkedin_icon</title>
    <g id="Page-1" stroke="none" stroke-width="1" fill="none" fill-rule="evenodd">
        <g id="linkedin_icon" fill-rule="nonzero">
            <rect id="Rectangle" fill="#FFFFFF" x="0" y="0" width="34" height="30" rx="2"></rect>
            <path d="M9.98,5.5 C9.98,6.881 8.87,8 7.5,8 C6.13,8 5.02,6.881 5.02,5.5 C5.02,4.12 6.13,3 7.5,3 C8.87,3 9.98,4.12 9.98,5.5 Z M10,10 L5,10 L5,26 L10,26 L10,10 Z M17.982,10 L13.014,10 L13.014,26 L17.983,26 L17.983,17.601 C17.983,12.931 24.012,12.549 24.012,17.601 L24.012,26 L29,26 L29,15.869 C29,7.989 20.078,8.276 17.982,12.155 L17.982,10 Z" id="Shape" fill="#000000"></path>
        </g>
    </g>
</svg>